<?xml version="1.0" standalone="no"?><!DOCTYPE svg PUBLIC "-//W3C//DTD SVG 1.1//EN" "http://www.w3.org/Graphics/SVG/1.1/DTD/svg11.dtd"><svg t="1525761240422" class="icon" style="" viewBox="0 0 1024 1024" version="1.1" xmlns="http://www.w3.org/2000/svg" p-id="27282" xmlns:xlink="http://www.w3.org/1999/xlink" width="100" height="100"><defs><style type="text/css"></style></defs><path d="M915.155013 796.535405 140.04457 796.535405 140.04457 150.59895c0-18.565844-15.023158-33.589003-33.589003-33.589003s-33.589003 15.023158-33.589003 33.589003l0 679.525458c0 18.565844 15.023158 33.589003 33.589003 33.589003l808.699446 0c18.565844 0 33.589003-15.023158 33.589003-33.589003S933.721881 796.535405 915.155013 796.535405z" p-id="27283"></path><path d="M255.770268 666.50798c4.264117 0 8.528234-1.607614 11.808954-4.854565l222.429929-219.575928 84.071767 84.071767c6.29845 6.29845 17.450441 6.29845 23.74889 0l147.253762-147.479913 7.798617 7.766894 44.858674 44.62229 32.251541-158.02713-161.362085 29.470195 46.11734 45.955658 6.540973 6.514367-135.332245 135.555325-84.006276-84.006276c-6.52767-6.494924-17.090237-6.560416-23.683399-0.065492L243.961314 637.773542c-6.593162 6.494924-6.658653 17.122983-0.130983 23.74889C247.111051 664.834874 251.440659 666.50798 255.770268 666.50798z" p-id="27284"></path></svg>