<?xml version="1.0" standalone="no"?><!DOCTYPE svg PUBLIC "-//W3C//DTD SVG 1.1//EN" "http://www.w3.org/Graphics/SVG/1.1/DTD/svg11.dtd"><svg t="1525761154359" class="icon" style="" viewBox="0 0 1024 1024" version="1.1" xmlns="http://www.w3.org/2000/svg" p-id="26615" xmlns:xlink="http://www.w3.org/1999/xlink" width="100" height="100"><defs><style type="text/css"></style></defs><path d="M217.088 903.168c-14.336 0-25.6-11.264-25.6-25.6V358.912c0-14.336 11.264-25.6 25.6-25.6s25.6 11.264 25.6 25.6v518.656c0 14.336-11.264 25.6-25.6 25.6zM512.512 903.168c-14.336 0-25.6-11.264-25.6-25.6V72.704c0-14.336 11.264-25.6 25.6-25.6s25.6 11.264 25.6 25.6v804.864c0 14.336-11.264 25.6-25.6 25.6zM805.888 903.168c-14.336 0-25.6-11.264-25.6-25.6v-563.2c0-14.336 11.264-25.6 25.6-25.6s25.6 11.264 25.6 25.6v563.2c0 14.336-11.264 25.6-25.6 25.6z" p-id="26616"></path><path d="M922.624 454.656c-6.656 0-13.312-2.56-17.92-7.68l-117.248-117.76c-9.728-10.24-9.728-26.112 0-36.352 10.24-9.728 26.112-9.728 36.352 0l117.248 117.76c9.728 10.24 9.728 26.112 0 36.352-5.12 5.12-11.776 7.68-18.432 7.68zM967.68 924.16H51.2c-14.336 0-25.6-11.264-25.6-25.6s11.264-25.6 25.6-25.6h916.48c14.336 0 25.6 11.264 25.6 25.6s-11.264 25.6-25.6 25.6zM103.424 498.176c-5.632 0-11.776-2.048-16.384-6.144-10.752-9.216-12.288-25.088-3.072-35.84l110.08-132.096c9.216-10.752 25.088-12.288 35.84-3.072 10.752 9.216 12.288 25.088 3.072 35.84L122.88 488.96c-4.608 6.144-12.288 9.216-19.456 9.216z" p-id="26617"></path><path d="M379.392 648.704v-50.176c15.872 13.312 34.816 24.064 57.344 32.256 22.528 7.68 41.984 11.776 58.368 11.776 73.216 0 110.08-29.696 110.08-89.6 0-20.992-8.192-38.4-24.064-53.248-15.872-14.848-42.496-29.696-78.336-45.056C457.728 435.2 426.496 414.72 408.576 394.24c-17.92-20.992-27.136-46.08-27.136-76.288 0-37.888 14.336-68.608 43.52-92.16s65.024-34.816 107.52-34.816c39.936 0 74.24 8.192 102.912 24.576v47.616c-34.816-22.528-70.656-33.792-107.52-33.792-30.72 0-55.296 8.192-74.24 24.064-18.944 15.872-28.16 36.864-28.16 62.464 0 22.016 6.144 40.448 17.92 54.272 11.776 13.824 37.888 29.696 78.336 47.616 48.64 22.016 81.92 42.496 100.352 60.928 17.92 18.432 27.136 43.52 27.136 74.752 0 36.864-13.824 67.584-41.472 91.648-27.648 24.064-66.048 36.352-115.2 36.352-45.568-0.512-82.944-11.264-113.152-32.768z" p-id="26618"></path></svg>