<?xml version="1.0" standalone="no"?><!DOCTYPE svg PUBLIC "-//W3C//DTD SVG 1.1//EN" "http://www.w3.org/Graphics/SVG/1.1/DTD/svg11.dtd"><svg t="1525762149615" class="icon" style="" viewBox="0 0 1024 1024" version="1.1" xmlns="http://www.w3.org/2000/svg" p-id="6464" xmlns:xlink="http://www.w3.org/1999/xlink" width="100" height="100"><defs><style type="text/css"></style></defs><path d="M933.277867 654.596267c-20.113067-30.173867-64.887467-70.848-126.882134-75.345067 28.693333-47.2192 44.535467-103.104 42.496-162.8544-5.4528-159.616-139.8912-286.9248-299.5712-284.0832C389.192533 135.168 260.266667 265.860267 260.266667 426.666667a293.5808 293.5808 0 0 0 15.406933 93.866666H93.866667a8.533333 8.533333 0 0 0-8.533334 8.533334v354.133333a8.533333 8.533333 0 0 0 8.533334 8.533333h472.925866l364.130134-199.914666c1.527467-0.840533 2.798933-2.133333 3.485866-3.733334 5.841067-13.5808 3.9552-27.131733-1.130666-33.489066zM558.766933 174.967467c131.626667 2.094933 240.567467 107.042133 247.296 238.510933 3.336533 65.1776-18.210133 125.2096-55.8848 171.626667a205.8496 205.8496 0 0 0-32.477866 12.0064c-35.9296 14.370133-71.8592 35.9296-107.7888 57.489066l-280.9216-116.462933A250.453333 250.453333 0 0 1 302.933333 426.666667c0-140.394667 114.926933-253.943467 255.8336-251.6992zM136.533333 849.066667a8.533333 8.533333 0 0 1-8.533333-8.533334v-268.8a8.533333 8.533333 0 0 1 8.533333-8.533333h76.8a8.533333 8.533333 0 0 1 8.533334 8.533333v268.8a8.533333 8.533333 0 0 1-8.533334 8.533334H136.533333z m415.889067-0.448H264.533333V563.2h14.8224l286.0928 121.489067C537.6 699.733333 512 708.266667 430.2592 697.710933c0 0-108.2368-21.469867-108.475733-21.422933-3.554133-0.785067-7.424-0.712533-11.716267 1.6-6.216533 3.349333-10.5984 9.7536-10.321067 16.8064a18.1248 18.1248 0 0 0 14.813867 17.0752c0.256 0.0896 0.4608 0.2304 0.725333 0.311467l107.7888 21.559466c86.2336 21.559467 158.0928-14.370133 158.0928-14.370133s93.418667-50.299733 158.0928-86.2336c71.8592-43.114667 125.0816 12.8 146.6368 34.359467l-333.474133 181.2224z" fill="#222222" p-id="6465"></path><path d="M644.266667 409.019733h-179.2a8.533333 8.533333 0 0 1-8.533334-8.533333v-25.6a8.533333 8.533333 0 0 1 8.533334-8.533333h179.2a8.533333 8.533333 0 0 1 8.533333 8.533333v25.6a8.533333 8.533333 0 0 1-8.533333 8.533333zM644.266667 489.698133h-179.2a8.533333 8.533333 0 0 1-8.533334-8.533333v-25.6a8.533333 8.533333 0 0 1 8.533334-8.533333h179.2a8.533333 8.533333 0 0 1 8.533333 8.533333v25.6a8.533333 8.533333 0 0 1-8.533333 8.533333z" fill="#222222" p-id="6466"></path><path d="M533.333333 554.666667V384a8.533333 8.533333 0 0 1 8.533334-8.533333h25.6a8.533333 8.533333 0 0 1 8.533333 8.533333v170.666667a8.533333 8.533333 0 0 1-8.533333 8.533333h-25.6a8.533333 8.533333 0 0 1-8.533334-8.533333z" fill="#222222" p-id="6467"></path><path d="M549.4528 417.489067l-96.541867-96.541867a8.533333 8.533333 0 0 1 0-12.066133l18.103467-18.103467a8.533333 8.533333 0 0 1 12.066133 0l96.541867 96.541867a8.533333 8.533333 0 0 1 0 12.066133l-18.103467 18.103467a8.533333 8.533333 0 0 1-12.066133 0z" fill="#222222" p-id="6468"></path><path d="M559.880533 417.489067l96.541867-96.541867a8.533333 8.533333 0 0 0 0-12.066133l-18.103467-18.103467a8.533333 8.533333 0 0 0-12.066133 0l-96.541867 96.541867a8.533333 8.533333 0 0 0 0 12.066133l18.103467 18.103467a8.533333 8.533333 0 0 0 12.066133 0z" fill="#222222" p-id="6469"></path></svg>