<?xml version="1.0" standalone="no"?><!DOCTYPE svg PUBLIC "-//W3C//DTD SVG 1.1//EN" "http://www.w3.org/Graphics/SVG/1.1/DTD/svg11.dtd"><svg t="1525761113725" class="icon" style="" viewBox="0 0 1024 1024" version="1.1" xmlns="http://www.w3.org/2000/svg" p-id="26242" xmlns:xlink="http://www.w3.org/1999/xlink" width="100" height="100"><defs><style type="text/css"></style></defs><path d="M728.600381 760.685714l-185.100191-185.148952a24.380952 24.380952 0 0 1 34.523429-34.425905l185.051429 185.100191 185.002666-185.100191a24.380952 24.380952 0 0 1 34.523429 34.425905L797.500952 760.685714l185.100191 185.148953a24.380952 24.380952 0 1 1-34.523429 34.474666l-185.002666-185.10019-185.051429 185.10019a24.380952 24.380952 0 0 1-34.523429-34.474666l185.100191-185.148953zM463.238095 950.857143H170.374095c-40.374857 0-72.850286-30.866286-72.850285-67.82781V140.921905c0-37.10781 32.377905-67.82781 72.850285-67.82781h585.728c40.472381 0 72.850286 31.061333 72.850286 68.705524V410.087619a24.380952 24.380952 0 1 0 48.761905 0V141.897143C877.714286 76.751238 823.003429 24.380952 756.102095 24.380952H170.374095C103.570286 24.380952 48.761905 76.312381 48.761905 140.970667V883.078095C48.761905 947.44381 103.619048 999.619048 170.374095 999.619048H463.238095a24.380952 24.380952 0 1 0 0-48.761905zM244.97981 281.6H653.409524a24.380952 24.380952 0 1 0 0-48.761905H244.97981a24.380952 24.380952 0 1 0 0 48.761905z m0 138.971429H653.409524a24.380952 24.380952 0 1 0 0-48.761905H244.97981a24.380952 24.380952 0 1 0 0 48.761905z m0 138.971428H438.857143a24.380952 24.380952 0 1 0 0-48.761905H244.97981a24.380952 24.380952 0 1 0 0 48.761905z" p-id="26243"></path></svg>