<?xml version="1.0" standalone="no"?><!DOCTYPE svg PUBLIC "-//W3C//DTD SVG 1.1//EN" "http://www.w3.org/Graphics/SVG/1.1/DTD/svg11.dtd"><svg t="1525761141108" class="icon" style="" viewBox="0 0 1075 1024" version="1.1" xmlns="http://www.w3.org/2000/svg" p-id="26385" xmlns:xlink="http://www.w3.org/1999/xlink" width="104.98046875" height="100"><defs><style type="text/css"></style></defs><path d="M1025.024 422.2976a28.2112 28.2112 0 0 0-38.4 0l-411.5456 392.96-144.7424-138.1376a28.2112 28.2112 0 0 0-38.4 0 25.2416 25.2416 0 0 0 0 36.7104L556.032 870.4a28.2112 28.2112 0 0 0 40.96-2.8672l428.1344-408.7296a24.9344 24.9344 0 0 0-0.1536-36.5056zM819.2 803.328v97.536c0 39.424-34.048 71.8848-76.4928 71.8848H127.6928C85.2992 972.8 51.2 940.3904 51.2 901.5808V122.368C51.2 83.456 85.1968 51.2 127.6928 51.2h615.0144C785.2032 51.2 819.2 83.8144 819.2 123.3408V404.992a25.6 25.6 0 1 0 51.2 0V123.392C870.4 54.9888 812.9536 0 742.7072 0H127.6928C57.5488 0 0 54.528 0 122.4192V901.632C0 969.216 57.6 1024 127.6928 1024h615.0144C812.9024 1024 870.4 969.1136 870.4 900.9152V803.328a25.6 25.6 0 0 0-51.2 0zM206.0288 270.08H634.88a25.6 25.6 0 0 0 0-51.2H206.0288a25.6 25.6 0 0 0 0 51.2z m0 145.92H634.88a25.6 25.6 0 0 0 0-51.2H206.0288a25.6 25.6 0 0 0 0 51.2z m0 145.92h321.6384a25.6 25.6 0 0 0 0-51.2H206.0288a25.6 25.6 0 0 0 0 51.2z" p-id="26386"></path></svg>