<?xml version="1.0" standalone="no"?><!DOCTYPE svg PUBLIC "-//W3C//DTD SVG 1.1//EN" "http://www.w3.org/Graphics/SVG/1.1/DTD/svg11.dtd"><svg t="1525761220715" class="icon" style="" viewBox="0 0 1024 1024" version="1.1" xmlns="http://www.w3.org/2000/svg" p-id="27169" xmlns:xlink="http://www.w3.org/1999/xlink" width="100" height="100"><defs><style type="text/css"></style></defs><path d="M72.960197 659.355069c71.016427-27.600615 141.93871-55.248302 213.016535-82.898035 17.700127-13.213953 35.400255-26.488281 53.130058-39.761586l110.499673 221.834364 98.184183-221.834364c18.256806 13.568017 36.480866 27.122731 54.737672 40.642652 34.626635 11.402701 67.303872 23.780613 99.918687 37.566594l-94.16259 0L608.284415 823.86689l113.965611 0 0 113.950262 139.184993 0c-0.031722 14.032598-0.186242 28.158317-0.527003 42.48665-273.943163 0-547.948747 0-821.862233 0C33.446251 826.080302 43.749922 716.136284 72.960197 659.355069L72.960197 659.355069zM667.04675 673.650657l0 91.453898 113.965611 0 0 113.966635 91.438549 0L872.45091 765.104555l113.963565 0 0-91.453898L872.451934 673.650657 872.451934 559.699372l-91.438549 0 0 113.950262L667.04675 673.649634 667.04675 673.650657zM290.71157 384.188033c-6.560416-67.008136-7.983835-114.396423 12.43931-181.483354 77.327156-47.220465 171.82846 29.055756 285.733697 2.814092 11.169387 55.68423 15.069207 103.243409 11.757788 181.825139 0 0 44.249807-38.1069 50.468438-70.689992 6.188956-32.630165-5.446036-177.63163-21.042245-200.855564C567.348074 22.766516 336.32135 19.766183 267.719926 99.940177c-18.657942 21.706371-39.947827 219.777519-19.710924 246.172679C268.184507 372.524388 290.71157 384.188033 290.71157 384.188033z" p-id="27170"></path></svg>