<?xml version="1.0" standalone="no"?><!DOCTYPE svg PUBLIC "-//W3C//DTD SVG 1.1//EN" "http://www.w3.org/Graphics/SVG/1.1/DTD/svg11.dtd"><svg t="1525761188253" class="icon" style="" viewBox="0 0 1171 1024" version="1.1" xmlns="http://www.w3.org/2000/svg" p-id="26949" xmlns:xlink="http://www.w3.org/1999/xlink" width="114.35546875" height="100"><defs><style type="text/css"></style></defs><path d="M1158.168381 641.145905C1150.829714 648.070095 1141.467429 651.50781 1132.105143 651.50781 1122.03581 651.50781 1112.015238 647.558095 1104.554667 639.707429L585.167238 92.135619 65.77981 639.707429C51.370667 654.848 27.37981 655.506286 12.166095 641.145905-3.023238 626.809905-3.681524 602.86781 10.727619 587.727238L557.641143 11.166476C571.977143-3.876571 598.381714-3.876571 612.693333 11.166476L1159.606857 587.727238C1174.016 602.86781 1173.382095 626.809905 1158.168381 641.145905ZM232.71619 587.53219C253.659429 587.53219 270.628571 604.452571 270.628571 625.322667L270.628571 948.297143 385.243429 948.297143 385.243429 745.593905C385.243429 724.74819 402.212571 707.803429 423.15581 707.803429L714.849524 707.803429C735.817143 707.803429 752.786286 724.74819 752.786286 745.593905 752.786286 766.464 735.817143 783.408762 714.849524 783.408762L461.092571 783.408762 461.092571 986.112C461.092571 1006.957714 444.123429 1023.902476 423.15581 1023.902476L403.334095 1023.902476 232.71619 1023.902476C211.772952 1023.902476 194.779429 1006.957714 194.779429 986.112L194.779429 625.322667C194.779429 604.452571 211.772952 587.53219 232.71619 587.53219ZM719.262476 948.297143 899.705905 948.297143 899.705905 625.322667C899.705905 604.452571 916.699429 587.53219 937.642667 587.53219 958.585905 587.53219 975.555048 604.452571 975.555048 625.322667L975.555048 986.112C975.555048 1006.957714 958.585905 1023.902476 937.642667 1023.902476L719.262476 1023.902476C698.319238 1023.902476 681.325714 1006.957714 681.325714 986.112 681.325714 965.241905 698.319238 948.297143 719.262476 948.297143Z" p-id="26950"></path></svg>