<?xml version="1.0" standalone="no"?><!DOCTYPE svg PUBLIC "-//W3C//DTD SVG 1.1//EN" "http://www.w3.org/Graphics/SVG/1.1/DTD/svg11.dtd"><svg t="1525761171025" class="icon" style="" viewBox="0 0 1025 1024" version="1.1" xmlns="http://www.w3.org/2000/svg" p-id="26841" xmlns:xlink="http://www.w3.org/1999/xlink" width="100.09765625" height="100"><defs><style type="text/css"></style></defs><path d="M362.337 510.052c99.816 0 180.668-80.532 180.668-179.959 0-99.424-80.853-179.959-180.668-179.959-99.818 0-180.668 80.535-180.668 179.959-0.001 99.426 80.849 179.959 180.668 179.959m376.658-16.534c79.006 0 143.003-63.742 143.003-142.441 0-78.696-63.996-142.441-143.003-142.441-79.009 0-143.002 63.745-143.002 142.441 0 78.699 63.993 142.441 143.002 142.441M405.02 602.13c0.449 0.219 0.84 0.438 1.088 0.666 2.636 2.434-13.266 41.201-14.91 43.419-1.645 2.22-48.332 3.653-53.13 0-3.698-2.813-16.905-39.932-14.947-43.419 0.215-0.382 0.644-0.733 1.182-1.068C197.429 612.251 1 671.885 1 779.99v89.979h722.673V779.99c0-106.792-191.689-166.287-318.653-177.86m24.954 183.115c-1.331 5.237-51.118 59.81-66.512 59.286-13.693-0.463-64.931-51.162-66.269-59.286-1.336-8.124 31.348-112.94 39.842-117.005 8.496-4.062 49.065-2.559 53.131 0 4.068 2.562 41.139 111.768 39.808 117.005m309.021-220.506c-41.093 0-99.81 8.852-153.362 26.484 101.246 36.172 189.113 95.799 189.113 178.7v8.478H1025v-71.22c0-94.727-190.553-142.442-286.005-142.442" p-id="26842"></path></svg>