<?xml version="1.0" standalone="no"?><!DOCTYPE svg PUBLIC "-//W3C//DTD SVG 1.1//EN" "http://www.w3.org/Graphics/SVG/1.1/DTD/svg11.dtd"><svg t="1525761246223" class="icon" style="" viewBox="0 0 1024 1024" version="1.1" xmlns="http://www.w3.org/2000/svg" p-id="27391" xmlns:xlink="http://www.w3.org/1999/xlink" width="100" height="100"><defs><style type="text/css"></style></defs><path d="M511.963312 0L114.393523 126.308749A35.842337 35.842337 0 0 0 89.405647 160.618396l2.035212 496.503685 0.464832 5.665929c0.766345 3.442271 17.035475 86.509055 98.355997 166.535585 62.526223 61.659373 215.895747 142.238676 281.324031 176.623701 10.289125 5.427231 17.965139 9.409713 22.349638 11.872068l7.475006 4.045297a17.51287 17.51287 0 0 0 16.331945 0.226135l10.892151-5.527736c38.241877-18.769174 232.793029-115.944245 305.080729-187.189213 81.421026-80.089345 97.690156-163.131003 98.381123-166.585837l2.512607-502.144488a35.842337 35.842337 0 0 0-24.987876-34.347336L511.963312 0z m355.533875 653.51649c-3.06538 12.198706-20.57825 72.375642-79.888336 130.781189-57.287437 56.533655-212.591669 137.276278-269.049946 165.706425a17.412366 17.412366 0 0 1-16.093247-0.188446h-0.087942c-57.538698-30.226661-210.292634-110.454199-266.034818-165.467727-59.473405-58.480925-76.860645-118.569919-79.926025-130.781189l-1.82164-461.239247A15.904802 15.904802 0 0 1 165.63814 177.138786l335.583777-106.635037a35.478009 35.478009 0 0 1 21.482789 0L858.288483 177.138786a15.904802 15.904802 0 0 1 11.143412 15.188709l-1.909582 461.201558z m-349.503619-414.039927a146.585486 146.585486 0 0 1 103.695287 42.538435 143.130652 143.130652 0 0 1-0.615589 204.513638 146.158343 146.158343 0 0 1-67.287612 37.148893l-0.339202 60.81765 60.666893 0.138193a36.30717 36.30717 0 0 1 36.608683 36.194103 35.905153 35.905153 0 0 1-10.841899 25.565775 36.797128 36.797128 0 0 1-25.967792 10.565512l-60.666894-0.138194-0.276387 101.019361a35.905153 35.905153 0 0 1-10.841898 25.565775 36.797128 36.797128 0 0 1-25.967793 10.578075 36.30717 36.30717 0 0 1-36.608682-36.194103l0.891975-234.174962a145.932208 145.932208 0 0 1-67.048915-37.362465 143.218593 143.218593 0 0 1 0.540211-204.651831 146.987503 146.987503 0 0 1 104.034488-42.136418z m88.242754 143.319097a83.50649 83.50649 0 0 0-25.126069-60.202061 87.388468 87.388468 0 0 0-122.162947-0.238697 83.255229 83.255229 0 0 0-25.452708 59.963363 84.260272 84.260272 0 0 0 25.126069 60.302566 85.981408 85.981408 0 0 0 60.918155 24.92506c46.407849 0.163319 86.571871-39.359987 86.684937-84.813046z" p-id="27392"></path></svg>