<?xml version="1.0" standalone="no"?><!DOCTYPE svg PUBLIC "-//W3C//DTD SVG 1.1//EN" "http://www.w3.org/Graphics/SVG/1.1/DTD/svg11.dtd"><svg t="1525761212811" class="icon" style="" viewBox="0 0 1024 1024" version="1.1" xmlns="http://www.w3.org/2000/svg" p-id="27057" xmlns:xlink="http://www.w3.org/1999/xlink" width="100" height="100"><defs><style type="text/css"></style></defs><path d="M1022.4 23.8c-1.1-1.1-2.5-1.6-3.8-1.6L744.3 22.2c-2.1 0-4.2 1.3-5 3.4-0.9 2.1-0.3 4.4 1.2 5.9L855.3 144 544.7 410.5l-210.8-179L0 506l0 118.6 333.9-274.5L544.7 529l375.2-321.8 94.9 93c1.5 1.5 3.8 2 5.9 1.1 2.1-0.9 3.3-2.9 3.3-5L1024 27.6C1024 26.2 1023.5 24.8 1022.4 23.8z" p-id="27058"></path><path d="M0 1001.7 155.8 1001.7 155.8 610.8 0 738.8Z" p-id="27059"></path><path d="M267.1 519.3 267.1 1001.7 423 1001.7 423 540 333.9 464.4Z" p-id="27060"></path><path d="M534.3 634.5 534.3 1001.7 690.1 1001.7 690.1 518.6 544.7 643.3Z" p-id="27061"></path><path d="M801.4 423.1 801.4 1001.7 957.2 1001.7 957.2 358.1 919.9 321.5Z" p-id="27062"></path></svg>