<?xml version="1.0" standalone="no"?><!DOCTYPE svg PUBLIC "-//W3C//DTD SVG 1.1//EN" "http://www.w3.org/Graphics/SVG/1.1/DTD/svg11.dtd"><svg t="1525761257854" class="icon" style="" viewBox="0 0 1024 1024" version="1.1" xmlns="http://www.w3.org/2000/svg" p-id="27504" xmlns:xlink="http://www.w3.org/1999/xlink" width="100" height="100"><defs><style type="text/css"></style></defs><path d="M930.133333 490.666667l-187.733333-170.666667h-4.266667l-4.266666-4.266667h-4.266667-4.266667-4.266666-4.266667s-4.266667 0-4.266667 4.266667l-4.266666 4.266667v4.266666l-4.266667 4.266667v337.066667h-29.866667c-17.066667 0-25.6 12.8-25.6 25.6 0 29.866667-25.6 55.466667-55.466666 55.466666-29.866667 0-55.466667-25.6-55.466667-55.466666 0-17.066667-12.8-25.6-25.6-25.6H384c-29.866667 0-42.666667 12.8-42.666667 25.6v4.266666c0 29.866667-25.6 55.466667-55.466666 55.466667-29.866667 0-55.466667-25.6-55.466667-55.466667v-4.266666c0-17.066667-12.8-25.6-25.6-25.6H145.066667V302.933333h426.666666c17.066667 0 25.6-12.8 25.6-25.6s-12.8-25.6-25.6-25.6H93.866667V725.333333h85.333333c12.8 51.2 55.466667 89.6 110.933333 89.6 51.2 0 93.866667-38.4 106.666667-89.6h81.066667c12.8 51.2 55.466667 89.6 110.933333 89.6 51.2 0 98.133333-38.4 106.666667-89.6h238.933333v-234.666666z m-51.2 179.2h-123.733333V401.066667l123.733333 110.933333v157.866667z" fill="" p-id="27505"></path></svg>